<svg xmlns:xlink="http://www.w3.org/1999/xlink" version="1.1" class="highcharts-root" style="font-family: Inter, &quot;Segoe UI&quot;, Roboto, &quot;Helvetica Neue&quot;, sans-serif; font-size: 13px; fill: rgb(26, 26, 26);" xmlns="http://www.w3.org/2000/svg" width="600" height="550" viewBox="0 0 600 550" aria-label="Interactive chart" aria-hidden="false"><desc aria-hidden="true">Created with Highcharts 12.2.0</desc><defs aria-hidden="true"><filter id="highcharts-drop-shadow-4"><feDropShadow dx="1" dy="1" flood-color="#000000" flood-opacity="0.75" stdDeviation="2.5"></feDropShadow></filter><clipPath id="highcharts-2998a41-564-"><rect x="0" y="0" width="465" height="405" fill="none"></rect></clipPath><clipPath id="highcharts-2998a41-565-"><rect x="115" y="57" width="465" height="405" fill="none"></rect></clipPath></defs><rect fill="#f4f6f9" class="highcharts-background" filter="none" x="0" y="0" width="600" height="550" rx="0" ry="0" aria-hidden="true"></rect><rect fill="none" class="highcharts-plot-background" x="115" y="57" width="465" height="405" filter="none" aria-hidden="true"></rect><g class="highcharts-grid highcharts-xaxis-grid" data-z-index="1" aria-hidden="true"><path fill="none" stroke="#e6e6e6" stroke-width="0" stroke-dasharray="none" data-z-index="1" class="highcharts-grid-line" d="M 144.5 57 L 144.5 462" opacity="1"></path><path fill="none" stroke="#e6e6e6" stroke-width="0" stroke-dasharray="none" data-z-index="1" class="highcharts-grid-line" d="M 173.5 57 L 173.5 462" opacity="1"></path><path fill="none" stroke="#e6e6e6" stroke-width="0" stroke-dasharray="none" data-z-index="1" class="highcharts-grid-line" d="M 202.5 57 L 202.5 462" opacity="1"></path><path fill="none" stroke="#e6e6e6" stroke-width="0" stroke-dasharray="none" data-z-index="1" class="highcharts-grid-line" d="M 231.5 57 L 231.5 462" opacity="1"></path><path fill="none" stroke="#e6e6e6" stroke-width="0" stroke-dasharray="none" data-z-index="1" class="highcharts-grid-line" d="M 260.5 57 L 260.5 462" opacity="1"></path><path fill="none" stroke="#e6e6e6" stroke-width="0" stroke-dasharray="none" data-z-index="1" class="highcharts-grid-line" d="M 289.5 57 L 289.5 462" opacity="1"></path><path fill="none" stroke="#e6e6e6" stroke-width="0" stroke-dasharray="none" data-z-index="1" class="highcharts-grid-line" d="M 318.5 57 L 318.5 462" opacity="1"></path><path fill="none" stroke="#e6e6e6" stroke-width="0" stroke-dasharray="none" data-z-index="1" class="highcharts-grid-line" d="M 347.5 57 L 347.5 462" opacity="1"></path><path fill="none" stroke="#e6e6e6" stroke-width="0" stroke-dasharray="none" data-z-index="1" class="highcharts-grid-line" d="M 376.5 57 L 376.5 462" opacity="1"></path><path fill="none" stroke="#e6e6e6" stroke-width="0" stroke-dasharray="none" data-z-index="1" class="highcharts-grid-line" d="M 405.5 57 L 405.5 462" opacity="1"></path><path fill="none" stroke="#e6e6e6" stroke-width="0" stroke-dasharray="none" data-z-index="1" class="highcharts-grid-line" d="M 434.5 57 L 434.5 462" opacity="1"></path><path fill="none" stroke="#e6e6e6" stroke-width="0" stroke-dasharray="none" data-z-index="1" class="highcharts-grid-line" d="M 463.5 57 L 463.5 462" opacity="1"></path><path fill="none" stroke="#e6e6e6" stroke-width="0" stroke-dasharray="none" data-z-index="1" class="highcharts-grid-line" d="M 492.5 57 L 492.5 462" opacity="1"></path><path fill="none" stroke="#e6e6e6" stroke-width="0" stroke-dasharray="none" data-z-index="1" class="highcharts-grid-line" d="M 521.5 57 L 521.5 462" opacity="1"></path><path fill="none" stroke="#e6e6e6" stroke-width="0" stroke-dasharray="none" data-z-index="1" class="highcharts-grid-line" d="M 550.5 57 L 550.5 462" opacity="1"></path><path fill="none" stroke="#e6e6e6" stroke-width="0" stroke-dasharray="none" data-z-index="1" class="highcharts-grid-line" d="M 580.5 57 L 580.5 462" opacity="1"></path><path fill="none" stroke="#e6e6e6" stroke-width="0" stroke-dasharray="none" data-z-index="1" class="highcharts-grid-line" d="M 115.5 57 L 115.5 462" opacity="1"></path></g><g class="highcharts-grid highcharts-yaxis-grid" data-z-index="1" aria-hidden="true"><path fill="none" stroke="#e0e0e0" stroke-width="1" stroke-dasharray="none" data-z-index="1" class="highcharts-grid-line" d="M 115 462.5 L 580 462.5" opacity="1"></path><path fill="none" stroke="#e0e0e0" stroke-width="1" stroke-dasharray="none" data-z-index="1" class="highcharts-grid-line" d="M 115 417.5 L 580 417.5" opacity="1"></path><path fill="none" stroke="#e0e0e0" stroke-width="1" stroke-dasharray="none" data-z-index="1" class="highcharts-grid-line" d="M 115 372.5 L 580 372.5" opacity="1"></path><path fill="none" stroke="#e0e0e0" stroke-width="1" stroke-dasharray="none" data-z-index="1" class="highcharts-grid-line" d="M 115 327.5 L 580 327.5" opacity="1"></path><path fill="none" stroke="#e0e0e0" stroke-width="1" stroke-dasharray="none" data-z-index="1" class="highcharts-grid-line" d="M 115 282.5 L 580 282.5" opacity="1"></path><path fill="none" stroke="#e0e0e0" stroke-width="1" stroke-dasharray="none" data-z-index="1" class="highcharts-grid-line" d="M 115 237.5 L 580 237.5" opacity="1"></path><path fill="none" stroke="#e0e0e0" stroke-width="1" stroke-dasharray="none" data-z-index="1" class="highcharts-grid-line" d="M 115 192.5 L 580 192.5" opacity="1"></path><path fill="none" stroke="#e0e0e0" stroke-width="1" stroke-dasharray="none" data-z-index="1" class="highcharts-grid-line" d="M 115 147.5 L 580 147.5" opacity="1"></path><path fill="none" stroke="#e0e0e0" stroke-width="1" stroke-dasharray="none" data-z-index="1" class="highcharts-grid-line" d="M 115 102.5 L 580 102.5" opacity="1"></path><path fill="none" stroke="#e0e0e0" stroke-width="1" stroke-dasharray="none" data-z-index="1" class="highcharts-grid-line" d="M 115 57.5 L 580 57.5" opacity="1"></path></g><rect fill="none" class="highcharts-plot-border" data-z-index="1" stroke="#cccccc" stroke-width="0" x="115" y="57" width="465" height="405" aria-hidden="true"></rect><g class="highcharts-axis highcharts-xaxis" data-z-index="2" aria-hidden="true"><text x="347.5" data-z-index="7" text-anchor="middle" transform="translate(0,0)" class="highcharts-axis-title" style="font-size: 13px; fill: rgb(26, 26, 26);" y="526.8446987679991">F1_Years</text><path fill="none" class="highcharts-axis-line" stroke="#dcdcdc" stroke-width="1" data-z-index="7" d="M 115 462.5 L 580 462.5"></path></g><g class="highcharts-axis highcharts-yaxis" data-z-index="2" aria-hidden="true"><text x="36.1875" data-z-index="7" text-anchor="middle" transform="translate(0,0) rotate(270 36.1875 259.5)" class="highcharts-axis-title" style="font-size: 13px; fill: rgb(26, 26, 26);" y="259.5">F1_Total Budget (£M)</text><path fill="none" class="highcharts-axis-line" stroke="#dcdcdc" stroke-width="0" data-z-index="7" d="M 115 57 L 115 462"></path></g><g class="highcharts-series-group" data-z-index="3" filter="none" aria-hidden="false"><g class="highcharts-series highcharts-series-0 highcharts-column-series" data-z-index="0.1" opacity="1" transform="translate(115,57) scale(1 1)" clip-path="url(#highcharts-2998a41-564-)" aria-hidden="false"><path fill="#1A73E8" d="M 11 193 L 19 193 A 3 3 0 0 1 22 196 L 22 405 A 0 0 0 0 1 22 405 L 8 405 A 0 0 0 0 1 8 405 L 8 196 A 3 3 0 0 1 11 193 Z" stroke="#ffffff" stroke-width="0" opacity="1" filter="none" class="highcharts-point highcharts-color-0" tabindex="-1" role="img" aria-label="2010, 11,804.2. F1_Total Budget (£M)." style="outline: none;"></path><path fill="#34A853" d="M 40 198 L 48 198 A 3 3 0 0 1 51 201 L 51 405 A 0 0 0 0 1 51 405 L 37 405 A 0 0 0 0 1 37 405 L 37 201 A 3 3 0 0 1 40 198 Z" stroke="#ffffff" stroke-width="0" opacity="1" filter="none" class="highcharts-point highcharts-color-1" tabindex="-1" role="img" aria-label="2011, 11,520.4. F1_Total Budget (£M)." style="outline: none;"></path><path fill="#FBBC05" d="M 69 198 L 77 198 A 3 3 0 0 1 80 201 L 80 405 A 0 0 0 0 1 80 405 L 66 405 A 0 0 0 0 1 66 405 L 66 201 A 3 3 0 0 1 69 198 Z" stroke="#ffffff" stroke-width="0" opacity="1" filter="none" class="highcharts-point highcharts-color-2" tabindex="-1" role="img" aria-label="2012, 11,525.9. F1_Total Budget (£M)." style="outline: none;"></path><path fill="#EA4335" d="M 98 197 L 106 197 A 3 3 0 0 1 109 200 L 109 405 A 0 0 0 0 1 109 405 L 95 405 A 0 0 0 0 1 95 405 L 95 200 A 3 3 0 0 1 98 197 Z" stroke="#ffffff" stroke-width="0" opacity="1" filter="none" class="highcharts-point highcharts-color-3" tabindex="-1" role="img" aria-label="2013, 11,548.699999999999. F1_Total Budget (£M)." style="outline: none;"></path><path fill="#6C757D" d="M 127 190 L 135 190 A 3 3 0 0 1 138 193 L 138 405 A 0 0 0 0 1 138 405 L 124 405 A 0 0 0 0 1 124 405 L 124 193 A 3 3 0 0 1 127 190 Z" stroke="#ffffff" stroke-width="0" opacity="1" filter="none" class="highcharts-point highcharts-color-4" tabindex="-1" role="img" aria-label="2014, 11,919.6. F1_Total Budget (£M)." style="outline: none;"></path><path fill="#17A2B8" d="M 156 202 L 164 202 A 3 3 0 0 1 167 205 L 167 405 A 0 0 0 0 1 167 405 L 153 405 A 0 0 0 0 1 153 405 L 153 205 A 3 3 0 0 1 156 202 Z" stroke="#ffffff" stroke-width="0" opacity="1" filter="none" class="highcharts-point highcharts-color-5" tabindex="-1" role="img" aria-label="2015, 11,293.800000000001. F1_Total Budget (£M)." style="outline: none;"></path><path fill="#6610f2" d="M 185 196 L 193 196 A 3 3 0 0 1 196 199 L 196 405 A 0 0 0 0 1 196 405 L 182 405 A 0 0 0 0 1 182 405 L 182 199 A 3 3 0 0 1 185 196 Z" stroke="#ffffff" stroke-width="0" opacity="1" filter="none" class="highcharts-point highcharts-color-6" tabindex="-1" role="img" aria-label="2016, 11,614. F1_Total Budget (£M)." style="outline: none;"></path><path fill="#20c997" d="M 214 192 L 222 192 A 3 3 0 0 1 225 195 L 225 405 A 0 0 0 0 1 225 405 L 211 405 A 0 0 0 0 1 211 405 L 211 195 A 3 3 0 0 1 214 192 Z" stroke="#ffffff" stroke-width="0" opacity="1" filter="none" class="highcharts-point highcharts-color-7" tabindex="-1" role="img" aria-label="2017, 11,845.099999999999. F1_Total Budget (£M)." style="outline: none;"></path><path fill="#fd7e14" d="M 243 185 L 251 185 A 3 3 0 0 1 254 188 L 254 405 A 0 0 0 0 1 254 405 L 240 405 A 0 0 0 0 1 240 405 L 240 188 A 3 3 0 0 1 243 185 Z" stroke="#ffffff" stroke-width="0" opacity="1" filter="none" class="highcharts-point highcharts-color-8" tabindex="-1" role="img" aria-label="2018, 12,204.699999999999. F1_Total Budget (£M)." style="outline: none;"></path><path fill="#dc3545" d="M 272 176 L 280 176 A 3 3 0 0 1 283 179 L 283 405 A 0 0 0 0 1 283 405 L 269 405 A 0 0 0 0 1 269 405 L 269 179 A 3 3 0 0 1 272 176 Z" stroke="#ffffff" stroke-width="0" opacity="1" filter="none" class="highcharts-point highcharts-color-9" tabindex="-1" role="img" aria-label="2019, 12,741.6. F1_Total Budget (£M)." style="outline: none;"></path><path fill="#1A73E8" d="M 301 158 L 309 158 A 3 3 0 0 1 312 161 L 312 405 A 0 0 0 0 1 312 405 L 298 405 A 0 0 0 0 1 298 405 L 298 161 A 3 3 0 0 1 301 158 Z" stroke="#ffffff" stroke-width="0" opacity="1" filter="none" class="highcharts-point highcharts-color-0" tabindex="-1" role="img" aria-label="2020, 13,746.4. F1_Total Budget (£M)." style="outline: none;"></path><path fill="#34A853" d="M 330 139 L 338 139 A 3 3 0 0 1 341 142 L 341 405 A 0 0 0 0 1 341 405 L 327 405 A 0 0 0 0 1 327 405 L 327 142 A 3 3 0 0 1 330 139 Z" stroke="#ffffff" stroke-width="0" opacity="1" filter="none" class="highcharts-point highcharts-color-1" tabindex="-1" role="img" aria-label="2021, 14,782.5. F1_Total Budget (£M)." style="outline: none;"></path><path fill="#FBBC05" d="M 359 111 L 367 111 A 3 3 0 0 1 370 114 L 370 405 A 0 0 0 0 1 370 405 L 356 405 A 0 0 0 0 1 356 405 L 356 114 A 3 3 0 0 1 359 111 Z" stroke="#ffffff" stroke-width="0" opacity="1" filter="none" class="highcharts-point highcharts-color-2" tabindex="-1" role="img" aria-label="2022, 16,323.341. F1_Total Budget (£M)." style="outline: none;"></path><path fill="#EA4335" d="M 388 109 L 396 109 A 3 3 0 0 1 399 112 L 399 405 A 0 0 0 0 1 399 405 L 385 405 A 0 0 0 0 1 385 405 L 385 112 A 3 3 0 0 1 388 109 Z" stroke="#ffffff" stroke-width="0" opacity="1" filter="none" class="highcharts-point highcharts-color-3" tabindex="-1" role="img" aria-label="2023, 16,451.684. F1_Total Budget (£M)." style="outline: none;"></path><path fill="#6C757D" d="M 417 94 L 425 94 A 3 3 0 0 1 428 97 L 428 405 A 0 0 0 0 1 428 405 L 414 405 A 0 0 0 0 1 414 405 L 414 97 A 3 3 0 0 1 417 94 Z" stroke="#ffffff" stroke-width="0" opacity="1" filter="none" class="highcharts-point highcharts-color-4" tabindex="-1" role="img" aria-label="2024, 17,255.600000000002. F1_Total Budget (£M)." style="outline: none;"></path><path fill="#17A2B8" d="M 446 61 L 454 61 A 3 3 0 0 1 457 64 L 457 405 A 0 0 0 0 1 457 405 L 443 405 A 0 0 0 0 1 443 405 L 443 64 A 3 3 0 0 1 446 61 Z" stroke="#ffffff" stroke-width="0" opacity="1" filter="none" class="highcharts-point highcharts-color-5" tabindex="-1" role="img" aria-label="2025, 19,085. F1_Total Budget (£M)." style="outline: none;"></path></g><g class="highcharts-markers highcharts-series-0 highcharts-column-series" data-z-index="0.1" opacity="1" transform="translate(115,57) scale(1 1)" clip-path="none" aria-hidden="true"></g></g><text x="20" text-anchor="start" class="highcharts-title" data-z-index="4" style="font-size: 18px; font-weight: 600; fill: rgb(26, 26, 26);" text-align="left" y="34" transform-origin="20 21" transform="translate(0,0) scale(1 1)" aria-hidden="true">Budget NI</text><text x="20" text-anchor="start" class="highcharts-subtitle" data-z-index="4" style="font-size: 14px; fill: rgb(90, 90, 90);" text-align="left" y="58" transform-origin="20 17" transform="translate(0,0) scale(1 1)" aria-hidden="true"></text><text x="20" text-anchor="start" class="highcharts-caption" data-z-index="4" style="font-size: 0.8em; fill: rgb(102, 102, 102);" text-align="left" y="540" transform-origin="20 13" transform="translate(0,0) scale(1 1)" aria-hidden="true"></text><g class="highcharts-axis-labels highcharts-xaxis-labels" data-z-index="7" aria-hidden="true"><text x="132.35967712474618" style="cursor: pointer; font-size: 12px; fill: rgb(0, 34, 255); font-weight: bold; text-decoration: underline;" text-anchor="end" transform="translate(0,0) rotate(-45 132.35967712474618 485)" y="485" opacity="1" class="highcharts-drilldown-axis-label">2010</text><text x="161.42217712474618" style="cursor: pointer; font-size: 12px; fill: rgb(0, 34, 255); font-weight: bold; text-decoration: underline;" text-anchor="end" transform="translate(0,0) rotate(-45 161.42217712474618 485)" y="485" opacity="1" class="highcharts-drilldown-axis-label">2011</text><text x="190.48467712474618" style="cursor: pointer; font-size: 12px; fill: rgb(0, 34, 255); font-weight: bold; text-decoration: underline;" text-anchor="end" transform="translate(0,0) rotate(-45 190.48467712474618 485)" y="485" opacity="1" class="highcharts-drilldown-axis-label">2012</text><text x="219.54717712474618" style="cursor: pointer; font-size: 12px; fill: rgb(0, 34, 255); font-weight: bold; text-decoration: underline;" text-anchor="end" transform="translate(0,0) rotate(-45 219.54717712474618 485)" y="485" opacity="1" class="highcharts-drilldown-axis-label">2013</text><text x="248.6096771247462" style="cursor: pointer; font-size: 12px; fill: rgb(0, 34, 255); font-weight: bold; text-decoration: underline;" text-anchor="end" transform="translate(0,0) rotate(-45 248.6096771247462 485)" y="485" opacity="1" class="highcharts-drilldown-axis-label">2014</text><text x="277.6721771247462" style="cursor: pointer; font-size: 12px; fill: rgb(0, 34, 255); font-weight: bold; text-decoration: underline;" text-anchor="end" transform="translate(0,0) rotate(-45 277.6721771247462 485)" y="485" opacity="1" class="highcharts-drilldown-axis-label">2015</text><text x="306.7346771247462" style="cursor: pointer; font-size: 12px; fill: rgb(0, 34, 255); font-weight: bold; text-decoration: underline;" text-anchor="end" transform="translate(0,0) rotate(-45 306.7346771247462 485)" y="485" opacity="1" class="highcharts-drilldown-axis-label">2016</text><text x="335.7971771247462" style="cursor: pointer; font-size: 12px; fill: rgb(0, 34, 255); font-weight: bold; text-decoration: underline;" text-anchor="end" transform="translate(0,0) rotate(-45 335.7971771247462 485)" y="485" opacity="1" class="highcharts-drilldown-axis-label">2017</text><text x="364.8596771247462" style="cursor: pointer; font-size: 12px; fill: rgb(0, 34, 255); font-weight: bold; text-decoration: underline;" text-anchor="end" transform="translate(0,0) rotate(-45 364.8596771247462 485)" y="485" opacity="1" class="highcharts-drilldown-axis-label">2018</text><text x="393.9221771247462" style="cursor: pointer; font-size: 12px; fill: rgb(0, 34, 255); font-weight: bold; text-decoration: underline;" text-anchor="end" transform="translate(0,0) rotate(-45 393.9221771247462 485)" y="485" opacity="1" class="highcharts-drilldown-axis-label">2019</text><text x="422.9846771247462" style="cursor: pointer; font-size: 12px; fill: rgb(0, 34, 255); font-weight: bold; text-decoration: underline;" text-anchor="end" transform="translate(0,0) rotate(-45 422.9846771247462 485)" y="485" opacity="1" class="highcharts-drilldown-axis-label">2020</text><text x="452.0471771247462" style="cursor: pointer; font-size: 12px; fill: rgb(0, 34, 255); font-weight: bold; text-decoration: underline;" text-anchor="end" transform="translate(0,0) rotate(-45 452.0471771247462 485)" y="485" opacity="1" class="highcharts-drilldown-axis-label">2021</text><text x="481.1096771247462" style="cursor: pointer; font-size: 12px; fill: rgb(0, 34, 255); font-weight: bold; text-decoration: underline;" text-anchor="end" transform="translate(0,0) rotate(-45 481.1096771247462 485)" y="485" opacity="1" class="highcharts-drilldown-axis-label">2022</text><text x="510.1721771247462" style="cursor: pointer; font-size: 12px; fill: rgb(0, 34, 255); font-weight: bold; text-decoration: underline;" text-anchor="end" transform="translate(0,0) rotate(-45 510.1721771247462 485)" y="485" opacity="1" class="highcharts-drilldown-axis-label">2023</text><text x="539.2346771247462" style="cursor: pointer; font-size: 12px; fill: rgb(0, 34, 255); font-weight: bold; text-decoration: underline;" text-anchor="end" transform="translate(0,0) rotate(-45 539.2346771247462 485)" y="485" opacity="1" class="highcharts-drilldown-axis-label">2024</text><text x="568.2971771247462" style="cursor: pointer; font-size: 12px; fill: rgb(0, 34, 255); font-weight: bold; text-decoration: underline;" text-anchor="end" transform="translate(0,0) rotate(-45 568.2971771247462 485)" y="485" opacity="1" class="highcharts-drilldown-axis-label">2025</text></g><g class="highcharts-axis-labels highcharts-yaxis-labels" data-z-index="7" aria-hidden="true"><text x="100" style="cursor: default; font-size: 12px; fill: rgb(51, 51, 51);" text-anchor="end" transform="translate(0,0)" y="466" opacity="1">£0M</text><text x="100" style="cursor: default; font-size: 12px; fill: rgb(51, 51, 51);" text-anchor="end" transform="translate(0,0)" y="421" opacity="1">£2500M</text><text x="100" style="cursor: default; font-size: 12px; fill: rgb(51, 51, 51);" text-anchor="end" transform="translate(0,0)" y="376" opacity="1">£5000M</text><text x="100" style="cursor: default; font-size: 12px; fill: rgb(51, 51, 51);" text-anchor="end" transform="translate(0,0)" y="331" opacity="1">£7500M</text><text x="100" style="cursor: default; font-size: 12px; fill: rgb(51, 51, 51);" text-anchor="end" transform="translate(0,0)" y="286" opacity="1">£10000M</text><text x="100" style="cursor: default; font-size: 12px; fill: rgb(51, 51, 51);" text-anchor="end" transform="translate(0,0)" y="241" opacity="1">£12500M</text><text x="100" style="cursor: default; font-size: 12px; fill: rgb(51, 51, 51);" text-anchor="end" transform="translate(0,0)" y="196" opacity="1">£15000M</text><text x="100" style="cursor: default; font-size: 12px; fill: rgb(51, 51, 51);" text-anchor="end" transform="translate(0,0)" y="151" opacity="1">£17500M</text><text x="100" style="cursor: default; font-size: 12px; fill: rgb(51, 51, 51);" text-anchor="end" transform="translate(0,0)" y="106" opacity="1">£20000M</text><text x="100" style="cursor: default; font-size: 12px; fill: rgb(51, 51, 51);" text-anchor="end" transform="translate(0,0)" y="61" opacity="1">£22500M</text></g><text x="590" class="highcharts-credits" text-anchor="end" data-z-index="8" text-align="right" y="545" style="cursor: pointer; font-size: 0.6em; fill: rgb(153, 153, 153);" aria-label="Chart credits: Highcharts.com" aria-hidden="false">Highcharts.com</text><g class="highcharts-control-points" data-z-index="99" clip-path="url(#highcharts-2998a41-565-)" aria-hidden="true"></g></svg>